PathFileType	4	(X/Y/Z)	./resultDataOpenSim/trcMotMarkerGrf/sub09/qtm-14-05.trc
DataRate	CameraRate	NumFrames	NumMarkers	Units	OrigDataRate	OrigDataStartFrame	OrigNumFrames
250.000000	250.000000	5	24	m	250.000000	122	485
Frame#	Time	L.Toe.Tip			R.Toe.Tip			L.Ankle.Lat			R.Ankle.Lat			L.Ankle.Med			R.Ankle.Med			L.Heel			R.Heel			L.Knee.Lat			R.Knee.Lat			L.Knee.Med			R.Knee.Med			L.Thigh.Upper			R.Thigh.Upper			L.ASIS			R.ASIS			V.Sacral			L.Acromium			R.Acromium			C7			L.Elbow			R.Elbow			L.Wrist.Lat			R.Wrist.Lat
		X1	Y1	Z1	X2	Y2	Z2	X3	Y3	Z3	X4	Y4	Z4	X5	Y5	Z5	X6	Y6	Z6	X7	Y7	Z7	X8	Y8	Z8	X9	Y9	Z9	X10	Y10	Z10	X11	Y11	Z11	X12	Y12	Z12	X13	Y13	Z13	X14	Y14	Z14	X15	Y15	Z15	X16	Y16	Z16	X17	Y17	Z17	X18	Y18	Z18	X19	Y19	Z19	X20	Y20	Z20	X21	Y21	Z21	X22	Y22	Z22	X23	Y23	Z23	X24	Y24	Z24

122	0.484	-0.23084252	0.07057745	-0.0034391975	-0.61712777	0.038706475	0.1029583	-0.38194532	0.089210036	-0.039618652	-0.76588272	0.056732316	0.12730654	-0.36122941	0.10982152	0.055396721	-0.75081394	0.094462089	0.037540169	-0.44477813	0.042719922	0.009751715	-0.83202869	0.035553935	0.074553569	-0.39226306	0.50858902	-0.074491673	-0.6689354	0.51863994	0.21619471	-0.39290252	0.50510581	0.050809652	-0.66166024	0.49227246	0.068159861	-0.56842759	0.88883179	-0.11752796	-0.62508673	0.90757055	0.2520311	-0.50006942	0.97496762	-0.050971529	-0.51460198	0.98539437	0.18777627	-0.6761581	1.0365276	0.05185907	-0.49443479	1.4273002	-0.10618761	-0.52153576	1.4428143	0.2224445	-0.57564567	1.4873524	0.056323187	-0.64844554	1.0927229	-0.15020993	-0.61695149	1.0817999	0.31634521	-0.54593238	0.85463055	-0.19311425	-0.38000003	0.93184101	0.29805439
123	0.488	-0.21139479	0.073645095	-0.0023612374	-0.6171424	0.0386815	0.10302065	-0.3630357	0.088034954	-0.039017769	-0.76587334	0.056945445	0.12710916	-0.34294825	0.10962159	0.056145294	-0.75066239	0.094488356	0.037446271	-0.42445327	0.039944312	0.010406334	-0.83203786	0.035644468	0.074345988	-0.38614037	0.50676977	-0.074577353	-0.66529458	0.51742065	0.21572435	-0.38649249	0.50342046	0.050984802	-0.65999522	0.49184255	0.068323343	-0.56219117	0.88741471	-0.11749965	-0.62011492	0.90697092	0.25243264	-0.49342765	0.97362897	-0.050777947	-0.50844614	0.98428555	0.18797075	-0.66976209	1.0352989	0.051941696	-0.48841458	1.4262943	-0.10617843	-0.51574303	1.4417573	0.22248885	-0.56975961	1.486172	0.056319309	-0.64301466	1.0921577	-0.15061504	-0.6098836	1.0803211	0.31670367	-0.5418798	0.85373392	-0.19383146	-0.37162926	0.93239055	0.29783902
124	0.492	-0.19234119	0.076928581	-0.0013305357	-0.6171509	0.038643921	0.10310238	-0.34441461	0.087153936	-0.038425223	-0.76586929	0.0571157	0.12692806	-0.32490142	0.10968231	0.056804097	-0.75049955	0.094517389	0.037343311	-0.40432606	0.037515027	0.011177962	-0.83203511	0.035749433	0.074130975	-0.37998767	0.50490071	-0.074678391	-0.6610786	0.51597759	0.21495171	-0.38021275	0.50150355	0.051155381	-0.65812014	0.4914496	0.06845903	-0.55565268	0.8859322	-0.1174389	-0.61522101	0.90631517	0.25290358	-0.4867516	0.97222777	-0.050588467	-0.50226318	0.98311868	0.18815026	-0.6628247	1.0337077	0.051198948	-0.4824163	1.4252485	-0.1062075	-0.50993061	1.4406189	0.22252449	-0.56387003	1.4849263	0.056305059	-0.6375667	1.0915303	-0.15098551	-0.60283917	1.078769	0.31704172	-0.53776774	0.85277093	-0.19455112	-0.36332345	0.93285193	0.29762196
125	0.496	-0.17370112	0.08039365	-0.00037536403	-0.61714534	0.038602153	0.10322112	-0.32611699	0.086553598	-0.03784989	-0.76587693	0.057223462	0.12676805	-0.30714821	0.10996699	0.057380076	-0.7503121	0.094549413	0.037226559	-0.38447349	0.035441629	0.011983344	-0.83202197	0.035867704	0.073905511	-0.37372228	0.50301094	-0.074773127	-0.65610529	0.51400689	0.21353426	-0.37407892	0.49940948	0.051294737	-0.65586023	0.49109997	0.068595506	-0.54879445	0.88438661	-0.11736664	-0.61019237	0.90556942	0.25326108	-0.48005259	0.97076389	-0.050407766	-0.49604696	0.98189351	0.18831679	-0.65584085	1.0322104	0.049768677	-0.47642337	1.4241388	-0.10625176	-0.50408227	1.4393909	0.22254442	-0.55798	1.4836427	0.056295753	-0.63217992	1.0908509	-0.15125	-0.59581438	1.0771452	0.31735562	-0.53366756	0.85172259	-0.19531871	-0.35508806	0.93322229	0.29740558
126	0.5	-0.15547787	0.084015029	0.00049924014	-0.61712182	0.038570942	0.10336523	-0.30816295	0.086229155	-0.03730946	-0.76589336	0.057299182	0.12662177	-0.28973619	0.1104624	0.057909822	-0.75009332	0.094582225	0.037097382	-0.36499211	0.033744408	0.012724739	-0.83200035	0.036000699	0.073667613	-0.36726315	0.50110955	-0.07480488	-0.65038785	0.51107759	0.21099533	-0.36812726	0.49722435	0.05135612	-0.65309803	0.49078085	0.068782151	-0.54174775	0.88276518	-0.11728158	-0.60492553	0.90471172	0.25342084	-0.4733555	0.96922864	-0.050229279	-0.48979719	0.98060798	0.1884723	-0.64940117	1.0312124	0.048121109	-0.47040751	1.422941	-0.10628591	-0.49820754	1.4380735	0.22254843	-0.55209508	1.4823359	0.056303068	-0.62681269	1.090104	-0.15146996	-0.58880483	1.0754529	0.3176408	-0.52956771	0.85059651	-0.19613452	-0.34692619	0.93349789	0.29719232
